<svg width="482" height="519" viewBox="0 0 482 519" fill="none" xmlns="http://www.w3.org/2000/svg">
<path d="M340.294 348.828L406.409 308.695V40.0859L339.085 79.0056L340.294 348.828Z" fill="#4F62F6"/>
<path d="M340.212 348.69L272.888 309.77V39.9395L340.212 78.8591V348.69Z" fill="#342CA3"/>
<path d="M274.253 39.9388L340.509 78.9383L406.767 39.9388L340.509 0.939453L274.253 39.9388Z" fill="#598FF8"/>
<path d="M248.25 400.268L315.576 361.348V38.9194L248.25 77.8391V400.268Z" fill="#D6D2CD"/>
<path d="M248.45 400.729L181.124 361.811V38.9844L248.45 77.9041V400.729Z" fill="#C1BDB9"/>
<path d="M180.99 38.9197L248.247 77.8392L315.571 38.9197L248.247 0L180.99 38.9197Z" fill="#E7E5E3"/>
<path d="M157.218 454.125L224.475 413.492V39.2573L157.218 78.177V454.125Z" fill="#313238"/>
<path d="M89.8961 39.2575L157.222 78.1772L224.478 39.2575L157.222 0.337891L89.8961 39.2575Z" fill="#515258"/>
<path d="M157.222 454.258L89.8961 415.338V39.2573L157.222 78.177V454.258Z" fill="#17181A"/>
<path d="M67.3282 502.483L134.654 463.563V245.338L67.3282 284.258V502.483Z" fill="#4F62F6"/>
<path d="M0 245.338L67.3253 284.258L134.651 245.338L67.3253 206.418L0 245.338Z" fill="#598FF8"/>
<path d="M67.3253 500.638L0 461.718V245.338L67.3253 284.258V500.638Z" fill="#342CA3"/>
<path d="M93.5027 448.648L41.1727 475.162L65.1644 486.923L119.063 459.086L219.636 308.472L305.762 303.005L406.336 137.478L475.827 113.05L419.363 95.3857V107.162L367.996 132.507L285.203 286.103H190.743L93.5027 448.648Z" fill="#84D6D7"/>
<path d="M440.477 156.065L443.811 142.147L446.589 130.714L419.363 149.603L440.477 156.065Z" fill="#35999A"/>
<path fill-rule="evenodd" clip-rule="evenodd" d="M401.113 169.081L457.154 135.968L443.075 109.438L374.088 142.195L292.16 297.458H201.895L100.38 460.718L49.558 485.9L62.8695 514.508L126.238 485.9L222.134 333.937H314.123L401.113 169.081Z" fill="#56ADAE"/>
<path d="M440.387 155.639V102.451L480.395 112.393L440.387 155.639Z" fill="#56ADAE"/>
<path d="M63.269 485.172L41.7582 475.162V503.424L63.269 514.026V485.172Z" fill="#35999A"/>
</svg>
